<mxfile host="app.diagrams.net" agent="Mozilla/5.0 (Windows NT 10.0; Win64; x64) AppleWebKit/537.36 (KHTML, like Gecko) Chrome/126.0.0.0 Safari/537.36" version="24.7.5">
  <diagram name="第 1 页" id="YjYtX7tzhT0VxWiRHVgt">
    <mxGraphModel dx="420" dy="212" grid="0" gridSize="10" guides="1" tooltips="1" connect="1" arrows="1" fold="1" page="1" pageScale="1" pageWidth="827" pageHeight="1169" math="0" shadow="0">
      <root>
        <mxCell id="0" />
        <mxCell id="1" parent="0" />
        <mxCell id="_t_QEoP6cxp7WhYtKz9P-2" value="" style="rounded=0;whiteSpace=wrap;html=1;" parent="1" vertex="1">
          <mxGeometry x="540.5" y="487.04" width="86" height="66.04" as="geometry" />
        </mxCell>
        <mxCell id="_t_QEoP6cxp7WhYtKz9P-3" value="1" style="whiteSpace=wrap;fontFamily=Times New Roman;fontSize=12;fontStyle=1;labelPosition=center;verticalLabelPosition=middle;align=center;verticalAlign=middle;spacing=0;" parent="1" vertex="1">
          <mxGeometry x="310.5" y="410" width="30" height="10" as="geometry" />
        </mxCell>
        <mxCell id="_t_QEoP6cxp7WhYtKz9P-4" value="1" style="whiteSpace=wrap;fillColor=#e1d5e7;fontFamily=Times New Roman;fontSize=12;fontStyle=1;labelPosition=center;verticalLabelPosition=middle;align=center;verticalAlign=middle;spacing=0;strokeColor=#9673a6;spacingTop=-2;" parent="1" vertex="1">
          <mxGeometry x="390.5" y="444" width="80" height="10" as="geometry" />
        </mxCell>
        <mxCell id="_t_QEoP6cxp7WhYtKz9P-6" value="1" style="whiteSpace=wrap;fillColor=#f8cecc;fontFamily=Times New Roman;fontSize=12;fontStyle=1;labelPosition=center;verticalLabelPosition=middle;align=center;verticalAlign=middle;spacing=0;strokeColor=#b85450;" parent="1" vertex="1">
          <mxGeometry x="350.5" y="427" width="40" height="10" as="geometry" />
        </mxCell>
        <mxCell id="_t_QEoP6cxp7WhYtKz9P-7" value="" style="whiteSpace=wrap;html=1;aspect=fixed;fillColor=#FFFFFF;fontFamily=Times New Roman;" parent="1" vertex="1">
          <mxGeometry x="545.5" y="489.15999999999997" width="10" height="10" as="geometry" />
        </mxCell>
        <mxCell id="_t_QEoP6cxp7WhYtKz9P-8" value="" style="whiteSpace=wrap;html=1;aspect=fixed;fillColor=#f8cecc;fontFamily=Times New Roman;strokeColor=#b85450;" parent="1" vertex="1">
          <mxGeometry x="545.5" y="502.15999999999985" width="10" height="10" as="geometry" />
        </mxCell>
        <mxCell id="_t_QEoP6cxp7WhYtKz9P-9" value="" style="whiteSpace=wrap;html=1;aspect=fixed;fillColor=#fff2cc;fontFamily=Times New Roman;strokeColor=#d6b656;" parent="1" vertex="1">
          <mxGeometry x="545.5" y="541.1199999999999" width="10" height="10" as="geometry" />
        </mxCell>
        <mxCell id="_t_QEoP6cxp7WhYtKz9P-10" value="" style="whiteSpace=wrap;html=1;aspect=fixed;fillColor=#e1d5e7;fontFamily=Times New Roman;strokeColor=#9673a6;" parent="1" vertex="1">
          <mxGeometry x="545.5" y="515.16" width="10" height="10" as="geometry" />
        </mxCell>
        <mxCell id="_t_QEoP6cxp7WhYtKz9P-11" value="&lt;p style=&quot;line-height: 100%;&quot;&gt;&lt;font style=&quot;font-size: 10px;&quot;&gt;Compute&lt;/font&gt;&lt;/p&gt;" style="text;html=1;align=center;verticalAlign=middle;whiteSpace=wrap;rounded=0;fontFamily=Times New Roman;" parent="1" vertex="1">
          <mxGeometry x="555.5" y="489.15999999999997" width="50" height="10" as="geometry" />
        </mxCell>
        <mxCell id="_t_QEoP6cxp7WhYtKz9P-12" value="&lt;p style=&quot;line-height: 100%;&quot;&gt;&lt;font style=&quot;font-size: 10px;&quot;&gt;Swap&lt;/font&gt;&lt;/p&gt;" style="text;html=1;align=center;verticalAlign=middle;whiteSpace=wrap;rounded=0;fontFamily=Times New Roman;" parent="1" vertex="1">
          <mxGeometry x="549.5" y="541.1199999999999" width="50" height="10" as="geometry" />
        </mxCell>
        <mxCell id="_t_QEoP6cxp7WhYtKz9P-13" value="&lt;p style=&quot;line-height: 100%;&quot;&gt;&lt;span style=&quot;font-size: 10px;&quot;&gt;Snapshot&lt;/span&gt;&lt;/p&gt;" style="text;html=1;align=center;verticalAlign=middle;whiteSpace=wrap;rounded=0;fontFamily=Times New Roman;" parent="1" vertex="1">
          <mxGeometry x="555.5" y="502.15999999999985" width="50" height="10" as="geometry" />
        </mxCell>
        <mxCell id="_t_QEoP6cxp7WhYtKz9P-14" value="&lt;p style=&quot;line-height: 100%;&quot;&gt;&lt;font style=&quot;font-size: 10px;&quot;&gt;Persist&lt;/font&gt;&lt;/p&gt;" style="text;html=1;align=center;verticalAlign=middle;whiteSpace=wrap;rounded=0;fontFamily=Times New Roman;" parent="1" vertex="1">
          <mxGeometry x="550.5" y="515.16" width="50" height="10" as="geometry" />
        </mxCell>
        <mxCell id="_t_QEoP6cxp7WhYtKz9P-16" value="1" style="whiteSpace=wrap;fontFamily=Times New Roman;fontSize=12;fontStyle=1;labelPosition=center;verticalLabelPosition=middle;align=center;verticalAlign=middle;spacing=0;fillColor=#CCCCCC;" parent="1" vertex="1">
          <mxGeometry x="340.5" y="410" width="10" height="10" as="geometry" />
        </mxCell>
        <mxCell id="_t_QEoP6cxp7WhYtKz9P-18" value="2" style="whiteSpace=wrap;fontFamily=Times New Roman;fontSize=12;fontStyle=1;labelPosition=center;verticalLabelPosition=middle;align=center;verticalAlign=middle;spacing=0;" parent="1" vertex="1">
          <mxGeometry x="390.5" y="410" width="30" height="10" as="geometry" />
        </mxCell>
        <mxCell id="_t_QEoP6cxp7WhYtKz9P-19" value="2" style="whiteSpace=wrap;fontFamily=Times New Roman;fontSize=12;fontStyle=1;labelPosition=center;verticalLabelPosition=middle;align=center;verticalAlign=middle;spacing=0;fillColor=#CCCCCC;" parent="1" vertex="1">
          <mxGeometry x="420.5" y="410" width="10" height="10" as="geometry" />
        </mxCell>
        <mxCell id="_t_QEoP6cxp7WhYtKz9P-20" value="3" style="whiteSpace=wrap;fontFamily=Times New Roman;fontSize=12;fontStyle=1;labelPosition=center;verticalLabelPosition=middle;align=center;verticalAlign=middle;spacing=0;" parent="1" vertex="1">
          <mxGeometry x="430.5" y="410" width="30" height="10" as="geometry" />
        </mxCell>
        <mxCell id="_t_QEoP6cxp7WhYtKz9P-21" value="3" style="whiteSpace=wrap;fontFamily=Times New Roman;fontSize=12;fontStyle=1;labelPosition=center;verticalLabelPosition=middle;align=center;verticalAlign=middle;spacing=0;fillColor=#CCCCCC;" parent="1" vertex="1">
          <mxGeometry x="460.5" y="410" width="10" height="10" as="geometry" />
        </mxCell>
        <mxCell id="_t_QEoP6cxp7WhYtKz9P-22" value="&lt;b&gt;(a) Persist Pipelining&lt;/b&gt;" style="text;html=1;align=center;verticalAlign=middle;whiteSpace=wrap;rounded=0;fontFamily=Times New Roman;fontSize=12;fontStyle=0;labelPosition=center;verticalLabelPosition=middle;spacing=0;" parent="1" vertex="1">
          <mxGeometry x="393.7" y="451.04" width="105.3" height="30" as="geometry" />
        </mxCell>
        <mxCell id="_t_QEoP6cxp7WhYtKz9P-23" value="&lt;b&gt;(b) CheckFreq&lt;/b&gt;" style="text;html=1;align=center;verticalAlign=middle;whiteSpace=wrap;rounded=0;fontFamily=Times New Roman;fontSize=12;fontStyle=0;labelPosition=center;verticalLabelPosition=middle;spacing=0;" parent="1" vertex="1">
          <mxGeometry x="408.08" y="531.04" width="74.25" height="30" as="geometry" />
        </mxCell>
        <mxCell id="_t_QEoP6cxp7WhYtKz9P-24" value="1" style="whiteSpace=wrap;fontSize=12;fontFamily=Times New Roman;fontStyle=1;labelPosition=center;verticalLabelPosition=middle;align=center;verticalAlign=middle;spacing=0;" parent="1" vertex="1">
          <mxGeometry x="310.5" y="489.04" width="30" height="10" as="geometry" />
        </mxCell>
        <mxCell id="_t_QEoP6cxp7WhYtKz9P-25" value="1" style="whiteSpace=wrap;fillColor=#e1d5e7;fontSize=12;fontFamily=Times New Roman;fontStyle=1;labelPosition=center;verticalLabelPosition=middle;align=center;verticalAlign=middle;spacing=0;strokeColor=#9673a6;spacingTop=-2;" parent="1" vertex="1">
          <mxGeometry x="390.5" y="521.04" width="80" height="10" as="geometry" />
        </mxCell>
        <mxCell id="_t_QEoP6cxp7WhYtKz9P-27" value="1" style="whiteSpace=wrap;fillColor=#f8cecc;fontSize=12;fontFamily=Times New Roman;fontStyle=1;labelPosition=center;verticalLabelPosition=middle;align=center;verticalAlign=middle;spacing=0;strokeColor=#b85450;" parent="1" vertex="1">
          <mxGeometry x="350.5" y="505.08000000000004" width="40" height="10" as="geometry" />
        </mxCell>
        <mxCell id="_t_QEoP6cxp7WhYtKz9P-28" style="edgeStyle=orthogonalEdgeStyle;rounded=0;orthogonalLoop=1;jettySize=auto;html=1;exitX=0;exitY=0.75;exitDx=0;exitDy=0;entryX=0;entryY=0;entryDx=0;entryDy=0;endArrow=none;endFill=0;dashed=1;dashPattern=1 1;" parent="1" source="_t_QEoP6cxp7WhYtKz9P-29" target="_t_QEoP6cxp7WhYtKz9P-27" edge="1">
          <mxGeometry relative="1" as="geometry" />
        </mxCell>
        <mxCell id="_t_QEoP6cxp7WhYtKz9P-29" value="1" style="whiteSpace=wrap;fontSize=12;fontFamily=Times New Roman;fontStyle=1;labelPosition=center;verticalLabelPosition=middle;align=center;verticalAlign=middle;spacing=0;fillColor=#CCCCCC;" parent="1" vertex="1">
          <mxGeometry x="340.5" y="489.04" width="10" height="10" as="geometry" />
        </mxCell>
        <mxCell id="_t_QEoP6cxp7WhYtKz9P-30" value="2" style="whiteSpace=wrap;fontSize=12;fontFamily=Times New Roman;fontStyle=1;labelPosition=center;verticalLabelPosition=middle;align=center;verticalAlign=middle;spacing=0;" parent="1" vertex="1">
          <mxGeometry x="350.5" y="489.04" width="30" height="10" as="geometry" />
        </mxCell>
        <mxCell id="_t_QEoP6cxp7WhYtKz9P-31" value="2" style="whiteSpace=wrap;fontSize=12;fontFamily=Times New Roman;fontStyle=1;labelPosition=center;verticalLabelPosition=middle;align=center;verticalAlign=middle;spacing=0;fillColor=#CCCCCC;" parent="1" vertex="1">
          <mxGeometry x="390.5" y="489.04" width="10" height="10" as="geometry" />
        </mxCell>
        <mxCell id="_t_QEoP6cxp7WhYtKz9P-32" value="3" style="whiteSpace=wrap;fontSize=12;fontFamily=Times New Roman;fontStyle=1;labelPosition=center;verticalLabelPosition=middle;align=center;verticalAlign=middle;spacing=0;" parent="1" vertex="1">
          <mxGeometry x="400.5" y="489.04" width="30" height="10" as="geometry" />
        </mxCell>
        <mxCell id="_t_QEoP6cxp7WhYtKz9P-33" value="3" style="whiteSpace=wrap;fontSize=12;fontFamily=Times New Roman;fontStyle=1;labelPosition=center;verticalLabelPosition=middle;align=center;verticalAlign=middle;spacing=0;fillColor=#CCCCCC;" parent="1" vertex="1">
          <mxGeometry x="430.5" y="489.04" width="10" height="10" as="geometry" />
        </mxCell>
        <mxCell id="_t_QEoP6cxp7WhYtKz9P-35" value="4" style="whiteSpace=wrap;fontFamily=Times New Roman;fontSize=12;fontStyle=1;labelPosition=center;verticalLabelPosition=middle;align=center;verticalAlign=middle;spacing=0;" parent="1" vertex="1">
          <mxGeometry x="470.5" y="410" width="30" height="10" as="geometry" />
        </mxCell>
        <mxCell id="_t_QEoP6cxp7WhYtKz9P-36" value="4" style="whiteSpace=wrap;fontFamily=Times New Roman;fontSize=12;fontStyle=1;labelPosition=center;verticalLabelPosition=middle;align=center;verticalAlign=middle;spacing=0;fillColor=#CCCCCC;" parent="1" vertex="1">
          <mxGeometry x="500.5" y="410" width="10" height="10" as="geometry" />
        </mxCell>
        <mxCell id="_t_QEoP6cxp7WhYtKz9P-37" value="4" style="whiteSpace=wrap;fontSize=12;fontFamily=Times New Roman;fontStyle=1;labelPosition=center;verticalLabelPosition=middle;align=center;verticalAlign=middle;spacing=0;" parent="1" vertex="1">
          <mxGeometry x="440.5" y="489.04" width="30" height="10" as="geometry" />
        </mxCell>
        <mxCell id="_t_QEoP6cxp7WhYtKz9P-38" value="5" style="whiteSpace=wrap;fontFamily=Times New Roman;fontSize=12;fontStyle=1;labelPosition=center;verticalLabelPosition=middle;align=center;verticalAlign=middle;spacing=0;" parent="1" vertex="1">
          <mxGeometry x="510.5" y="410" width="30" height="10" as="geometry" />
        </mxCell>
        <mxCell id="_t_QEoP6cxp7WhYtKz9P-39" value="5" style="whiteSpace=wrap;fontFamily=Times New Roman;fontSize=12;fontStyle=1;labelPosition=center;verticalLabelPosition=middle;align=center;verticalAlign=middle;spacing=0;fillColor=#CCCCCC;" parent="1" vertex="1">
          <mxGeometry x="540.5" y="410" width="10" height="10" as="geometry" />
        </mxCell>
        <mxCell id="_t_QEoP6cxp7WhYtKz9P-40" value="5" style="whiteSpace=wrap;fontFamily=Times New Roman;fontSize=12;fontStyle=1;labelPosition=center;verticalLabelPosition=middle;align=center;verticalAlign=middle;spacing=0;" parent="1" vertex="1">
          <mxGeometry x="480.5" y="489.03999999999996" width="30" height="10" as="geometry" />
        </mxCell>
        <mxCell id="_t_QEoP6cxp7WhYtKz9P-41" value="5" style="whiteSpace=wrap;fontFamily=Times New Roman;fontSize=12;fontStyle=1;labelPosition=center;verticalLabelPosition=middle;align=center;verticalAlign=middle;spacing=0;fillColor=#CCCCCC;" parent="1" vertex="1">
          <mxGeometry x="510.5" y="489.03999999999996" width="10" height="10" as="geometry" />
        </mxCell>
        <mxCell id="_t_QEoP6cxp7WhYtKz9P-42" value="4" style="whiteSpace=wrap;fontSize=12;fontFamily=Times New Roman;fontStyle=1;labelPosition=center;verticalLabelPosition=middle;align=center;verticalAlign=middle;spacing=0;fillColor=#CCCCCC;" parent="1" vertex="1">
          <mxGeometry x="470.5" y="489.04" width="10" height="10" as="geometry" />
        </mxCell>
        <mxCell id="_t_QEoP6cxp7WhYtKz9P-43" value="" style="whiteSpace=wrap;html=1;aspect=fixed;fontFamily=Times New Roman;fillStyle=auto;fillColor=#CCCCCC;" parent="1" vertex="1">
          <mxGeometry x="545.5" y="528.1199999999999" width="10" height="10" as="geometry" />
        </mxCell>
        <mxCell id="_t_QEoP6cxp7WhYtKz9P-44" value="&lt;p style=&quot;line-height: 100%;&quot;&gt;&lt;font style=&quot;font-size: 10px;&quot;&gt;Weight Update&lt;/font&gt;&lt;/p&gt;" style="text;html=1;align=center;verticalAlign=middle;whiteSpace=wrap;rounded=0;fontFamily=Times New Roman;" parent="1" vertex="1">
          <mxGeometry x="556.5" y="527.0399999999998" width="71" height="10" as="geometry" />
        </mxCell>
        <mxCell id="_t_QEoP6cxp7WhYtKz9P-45" value="&lt;b&gt;(c) Compute-swap parallelism&lt;/b&gt;" style="text;html=1;align=center;verticalAlign=middle;whiteSpace=wrap;rounded=0;fontFamily=Times New Roman;spacing=0;" parent="1" vertex="1">
          <mxGeometry x="387.7" y="614.5799999999999" width="155" height="21.54" as="geometry" />
        </mxCell>
        <mxCell id="_t_QEoP6cxp7WhYtKz9P-46" value="&lt;b&gt;(d) GEMINI&lt;/b&gt;" style="text;html=1;align=center;verticalAlign=middle;whiteSpace=wrap;rounded=0;fontFamily=Times New Roman;" parent="1" vertex="1">
          <mxGeometry x="426.08" y="693" width="78.25" height="30" as="geometry" />
        </mxCell>
        <mxCell id="_t_QEoP6cxp7WhYtKz9P-47" value="" style="whiteSpace=wrap;fillColor=#f8cecc;fontSize=12;fontFamily=Times New Roman;fontStyle=1;spacing=0;strokeColor=#b85450;" parent="1" vertex="1">
          <mxGeometry x="320.2" y="669.04" width="5" height="10" as="geometry" />
        </mxCell>
        <mxCell id="_t_QEoP6cxp7WhYtKz9P-49" value="1" style="whiteSpace=wrap;fillColor=#f8cecc;fontSize=12;fontFamily=Times New Roman;fontStyle=1;spacing=0;strokeColor=#b85450;" parent="1" vertex="1">
          <mxGeometry x="350.5" y="669.04" width="30" height="10" as="geometry" />
        </mxCell>
        <mxCell id="_t_QEoP6cxp7WhYtKz9P-58" value="1" style="whiteSpace=wrap;fillColor=#f8cecc;fontSize=12;fontFamily=Times New Roman;fontStyle=1;labelBackgroundColor=none;spacing=0;spacingTop=0;spacingBottom=0;strokeColor=#b85450;" parent="1" vertex="1">
          <mxGeometry x="350.5" y="586.5799999999999" width="40" height="10" as="geometry" />
        </mxCell>
        <mxCell id="_t_QEoP6cxp7WhYtKz9P-59" value="1" style="whiteSpace=wrap;fillColor=#e1d5e7;fontSize=12;fontFamily=Times New Roman;fontStyle=1;spacing=0;strokeColor=#9673a6;" parent="1" vertex="1">
          <mxGeometry x="340" y="685" width="80" height="10" as="geometry" />
        </mxCell>
        <mxCell id="_t_QEoP6cxp7WhYtKz9P-60" value="1" style="whiteSpace=wrap;fillColor=#e1d5e7;fontSize=12;fontFamily=Times New Roman;fontStyle=1;labelBackgroundColor=none;spacing=0;spacingTop=-2;spacingBottom=0;strokeColor=#9673a6;" parent="1" vertex="1">
          <mxGeometry x="390.5" y="603.5799999999999" width="80" height="10" as="geometry" />
        </mxCell>
        <mxCell id="_t_QEoP6cxp7WhYtKz9P-74" value="2" style="whiteSpace=wrap;fontSize=12;fontFamily=Times New Roman;fontStyle=1;spacing=0;" parent="1" vertex="1">
          <mxGeometry x="380" y="652.04" width="31" height="10" as="geometry" />
        </mxCell>
        <mxCell id="_t_QEoP6cxp7WhYtKz9P-78" value="2" style="whiteSpace=wrap;fontSize=12;fontFamily=Times New Roman;fontStyle=1;spacing=0;fillColor=#CCCCCC;" parent="1" vertex="1">
          <mxGeometry x="411" y="652.04" width="10" height="10" as="geometry" />
        </mxCell>
        <mxCell id="_t_QEoP6cxp7WhYtKz9P-87" value="2" style="whiteSpace=wrap;fillColor=#fff2cc;fontSize=12;fontFamily=Times New Roman;fontStyle=1;spacing=0;strokeColor=#d6b656;" parent="1" vertex="1">
          <mxGeometry x="380" y="669" width="40" height="10" as="geometry" />
        </mxCell>
        <mxCell id="_t_QEoP6cxp7WhYtKz9P-176" value="&lt;p style=&quot;line-height: 90%;&quot;&gt;3&lt;/p&gt;" style="whiteSpace=wrap;fillColor=#e1d5e7;fontSize=12;fontFamily=Times New Roman;fontStyle=1;labelBackgroundColor=none;spacing=0;spacingTop=0;spacingBottom=0;strokeColor=#9673a6;html=1;align=center;" parent="1" vertex="1">
          <mxGeometry x="510.5" y="603.5799999999999" width="81" height="10" as="geometry" />
        </mxCell>
        <mxCell id="_t_QEoP6cxp7WhYtKz9P-178" value="3" style="whiteSpace=wrap;fillColor=#f8cecc;fontSize=12;fontFamily=Times New Roman;fontStyle=1;labelBackgroundColor=none;spacing=0;spacingTop=0;spacingBottom=0;strokeColor=#b85450;" parent="1" vertex="1">
          <mxGeometry x="471.5" y="586.5799999999999" width="40" height="10" as="geometry" />
        </mxCell>
        <mxCell id="_t_QEoP6cxp7WhYtKz9P-184" value="" style="endArrow=classic;html=1;rounded=0;" parent="1" edge="1">
          <mxGeometry width="50" height="50" relative="1" as="geometry">
            <mxPoint x="310" y="701" as="sourcePoint" />
            <mxPoint x="629" y="701.04" as="targetPoint" />
          </mxGeometry>
        </mxCell>
        <mxCell id="_t_QEoP6cxp7WhYtKz9P-185" value="&lt;p style=&quot;line-height: 100%;&quot;&gt;&lt;font style=&quot;font-size: 10px;&quot;&gt;Time&lt;/font&gt;&lt;/p&gt;" style="text;html=1;align=center;verticalAlign=middle;whiteSpace=wrap;rounded=0;fontFamily=Times New Roman;" parent="1" vertex="1">
          <mxGeometry x="593.2" y="703" width="50" height="10" as="geometry" />
        </mxCell>
        <mxCell id="_t_QEoP6cxp7WhYtKz9P-186" value="1" style="whiteSpace=wrap;fontSize=12;fontFamily=Times New Roman;fontStyle=1;labelPosition=center;verticalLabelPosition=middle;align=center;verticalAlign=middle;spacing=0;" parent="1" vertex="1">
          <mxGeometry x="310.5" y="652.04" width="30" height="10" as="geometry" />
        </mxCell>
        <mxCell id="_t_QEoP6cxp7WhYtKz9P-187" value="1" style="whiteSpace=wrap;fontSize=12;fontFamily=Times New Roman;fontStyle=1;labelPosition=center;verticalLabelPosition=middle;align=center;verticalAlign=middle;spacing=0;fillColor=#CCCCCC;" parent="1" vertex="1">
          <mxGeometry x="340.5" y="652.04" width="10" height="10" as="geometry" />
        </mxCell>
        <mxCell id="_t_QEoP6cxp7WhYtKz9P-193" value="3" style="whiteSpace=wrap;fontSize=12;fontFamily=Times New Roman;fontStyle=1;labelPosition=center;verticalLabelPosition=middle;align=center;verticalAlign=middle;spacing=0;" parent="1" vertex="1">
          <mxGeometry x="420.5" y="652.04" width="31" height="10" as="geometry" />
        </mxCell>
        <mxCell id="_t_QEoP6cxp7WhYtKz9P-194" value="3" style="whiteSpace=wrap;fontSize=12;fontFamily=Times New Roman;fontStyle=1;labelPosition=center;verticalLabelPosition=middle;align=center;verticalAlign=middle;spacing=0;fillColor=#CCCCCC;" parent="1" vertex="1">
          <mxGeometry x="450.5" y="652.04" width="10" height="10" as="geometry" />
        </mxCell>
        <mxCell id="_t_QEoP6cxp7WhYtKz9P-199" value="1" style="whiteSpace=wrap;fontSize=12;fontFamily=Times New Roman;fontStyle=1;labelPosition=center;verticalLabelPosition=middle;align=center;verticalAlign=middle;spacing=0;" parent="1" vertex="1">
          <mxGeometry x="310" y="569.5799999999999" width="30" height="10" as="geometry" />
        </mxCell>
        <mxCell id="_t_QEoP6cxp7WhYtKz9P-200" value="1" style="whiteSpace=wrap;fontSize=12;fontFamily=Times New Roman;fontStyle=1;labelPosition=center;verticalLabelPosition=middle;align=center;verticalAlign=middle;spacing=0;fillColor=#CCCCCC;" parent="1" vertex="1">
          <mxGeometry x="340" y="569.5799999999999" width="10" height="10" as="geometry" />
        </mxCell>
        <mxCell id="_t_QEoP6cxp7WhYtKz9P-201" value="1" style="whiteSpace=wrap;fillColor=#fff2cc;fontSize=12;fontFamily=Times New Roman;fontStyle=1;spacing=0;strokeColor=#d6b656;html=1;" parent="1" vertex="1">
          <mxGeometry x="310.2" y="586.58" width="10" height="10" as="geometry" />
        </mxCell>
        <mxCell id="_t_QEoP6cxp7WhYtKz9P-225" value="" style="endArrow=classic;html=1;rounded=0;" parent="1" edge="1">
          <mxGeometry width="50" height="50" relative="1" as="geometry">
            <mxPoint x="310" y="618.31" as="sourcePoint" />
            <mxPoint x="629.4000000000001" y="618.3899999999999" as="targetPoint" />
          </mxGeometry>
        </mxCell>
        <mxCell id="_t_QEoP6cxp7WhYtKz9P-226" value="&lt;p style=&quot;line-height: 100%;&quot;&gt;&lt;font style=&quot;font-size: 10px;&quot;&gt;Time&lt;/font&gt;&lt;/p&gt;" style="text;html=1;align=center;verticalAlign=middle;whiteSpace=wrap;rounded=0;fontFamily=Times New Roman;" parent="1" vertex="1">
          <mxGeometry x="593.2" y="620.3499999999999" width="50" height="10" as="geometry" />
        </mxCell>
        <mxCell id="_t_QEoP6cxp7WhYtKz9P-228" value="" style="endArrow=classic;html=1;rounded=0;" parent="1" edge="1">
          <mxGeometry width="50" height="50" relative="1" as="geometry">
            <mxPoint x="310" y="536.04" as="sourcePoint" />
            <mxPoint x="537" y="536.0799999999999" as="targetPoint" />
          </mxGeometry>
        </mxCell>
        <mxCell id="_t_QEoP6cxp7WhYtKz9P-229" value="&lt;p style=&quot;line-height: 100%;&quot;&gt;&lt;font style=&quot;font-size: 10px;&quot;&gt;Time&lt;/font&gt;&lt;/p&gt;" style="text;html=1;align=center;verticalAlign=middle;whiteSpace=wrap;rounded=0;fontFamily=Times New Roman;" parent="1" vertex="1">
          <mxGeometry x="498.40000000000003" y="537.04" width="50" height="10" as="geometry" />
        </mxCell>
        <mxCell id="_t_QEoP6cxp7WhYtKz9P-231" value="" style="endArrow=classic;html=1;rounded=0;" parent="1" edge="1">
          <mxGeometry width="50" height="50" relative="1" as="geometry">
            <mxPoint x="310.6" y="459.03999999999996" as="sourcePoint" />
            <mxPoint x="563" y="459.0799999999999" as="targetPoint" />
          </mxGeometry>
        </mxCell>
        <mxCell id="_t_QEoP6cxp7WhYtKz9P-232" value="&lt;p style=&quot;line-height: 100%;&quot;&gt;&lt;font style=&quot;font-size: 10px;&quot;&gt;Time&lt;/font&gt;&lt;/p&gt;" style="text;html=1;align=center;verticalAlign=middle;whiteSpace=wrap;rounded=0;fontFamily=Times New Roman;" parent="1" vertex="1">
          <mxGeometry x="524" y="461.03999999999996" width="50" height="10" as="geometry" />
        </mxCell>
        <mxCell id="_t_QEoP6cxp7WhYtKz9P-235" value="" style="endArrow=none;html=1;rounded=0;dashed=1;" parent="1" edge="1">
          <mxGeometry width="50" height="50" relative="1" as="geometry">
            <mxPoint x="550.7" y="459" as="sourcePoint" />
            <mxPoint x="550.7" y="401" as="targetPoint" />
          </mxGeometry>
        </mxCell>
        <mxCell id="_t_QEoP6cxp7WhYtKz9P-236" value="" style="endArrow=none;html=1;rounded=0;dashed=1;" parent="1" edge="1">
          <mxGeometry width="50" height="50" relative="1" as="geometry">
            <mxPoint x="350.50000000000006" y="536" as="sourcePoint" />
            <mxPoint x="350.50000000000006" y="403" as="targetPoint" />
          </mxGeometry>
        </mxCell>
        <mxCell id="_t_QEoP6cxp7WhYtKz9P-237" value="" style="endArrow=none;html=1;rounded=0;dashed=1;" parent="1" edge="1">
          <mxGeometry width="50" height="50" relative="1" as="geometry">
            <mxPoint x="390.50000000000006" y="533.04" as="sourcePoint" />
            <mxPoint x="390.50000000000006" y="402.92" as="targetPoint" />
          </mxGeometry>
        </mxCell>
        <mxCell id="_t_QEoP6cxp7WhYtKz9P-238" value="" style="endArrow=none;html=1;rounded=0;dashed=1;" parent="1" edge="1">
          <mxGeometry width="50" height="50" relative="1" as="geometry">
            <mxPoint x="520.5" y="536.0799999999999" as="sourcePoint" />
            <mxPoint x="520.5" y="479" as="targetPoint" />
          </mxGeometry>
        </mxCell>
        <mxCell id="ik9S6n7GTcYjFrTrj1-Z-9" value="" style="whiteSpace=wrap;fillColor=#f8cecc;fontSize=12;fontFamily=Times New Roman;fontStyle=1;spacing=0;strokeColor=#b85450;" vertex="1" parent="1">
          <mxGeometry x="335.2" y="669.04" width="5" height="10" as="geometry" />
        </mxCell>
        <mxCell id="ik9S6n7GTcYjFrTrj1-Z-7" value="1" style="whiteSpace=wrap;fillColor=#fff2cc;fontSize=12;fontFamily=Times New Roman;fontStyle=1;spacing=0;strokeColor=#d6b656;" vertex="1" parent="1">
          <mxGeometry x="310.2" y="669" width="10" height="10" as="geometry" />
        </mxCell>
        <mxCell id="ik9S6n7GTcYjFrTrj1-Z-8" value="1" style="whiteSpace=wrap;fillColor=#fff2cc;fontSize=12;fontFamily=Times New Roman;fontStyle=1;spacing=0;strokeColor=#d6b656;" vertex="1" parent="1">
          <mxGeometry x="325.2" y="669.04" width="10" height="10" as="geometry" />
        </mxCell>
        <mxCell id="_t_QEoP6cxp7WhYtKz9P-246" value="" style="endArrow=none;html=1;rounded=0;dashed=1;" parent="1" edge="1">
          <mxGeometry width="50" height="50" relative="1" as="geometry">
            <mxPoint x="309.92" y="701" as="sourcePoint" />
            <mxPoint x="309.9200000000001" y="404" as="targetPoint" />
          </mxGeometry>
        </mxCell>
        <mxCell id="_t_QEoP6cxp7WhYtKz9P-86" value="1" style="whiteSpace=wrap;fillColor=#fff2cc;fontSize=12;fontFamily=Times New Roman;fontStyle=1;spacing=0;strokeColor=#d6b656;" parent="1" vertex="1">
          <mxGeometry x="340" y="669" width="10" height="10" as="geometry" />
        </mxCell>
        <mxCell id="ik9S6n7GTcYjFrTrj1-Z-10" value="" style="endArrow=block;html=1;rounded=0;endFill=1;endSize=3;jumpSize=6;" edge="1" parent="1">
          <mxGeometry width="50" height="50" relative="1" as="geometry">
            <mxPoint x="330" y="690" as="sourcePoint" />
            <mxPoint x="330" y="679" as="targetPoint" />
          </mxGeometry>
        </mxCell>
        <mxCell id="ik9S6n7GTcYjFrTrj1-Z-11" value="&lt;font face=&quot;Times New Roman&quot; style=&quot;font-size: 10px;&quot;&gt;Idles&lt;/font&gt;" style="text;html=1;align=center;verticalAlign=middle;whiteSpace=wrap;rounded=0;" vertex="1" parent="1">
          <mxGeometry x="310" y="688" width="39.2" height="14" as="geometry" />
        </mxCell>
        <mxCell id="ik9S6n7GTcYjFrTrj1-Z-13" value="" style="whiteSpace=wrap;fillColor=#f8cecc;fontSize=12;fontFamily=Times New Roman;fontStyle=1;spacing=0;strokeColor=#b85450;" vertex="1" parent="1">
          <mxGeometry x="430.35" y="669.04" width="5" height="10" as="geometry" />
        </mxCell>
        <mxCell id="ik9S6n7GTcYjFrTrj1-Z-14" value="3" style="whiteSpace=wrap;fillColor=#f8cecc;fontSize=12;fontFamily=Times New Roman;fontStyle=1;spacing=0;strokeColor=#b85450;" vertex="1" parent="1">
          <mxGeometry x="460.65000000000003" y="669.04" width="30" height="10" as="geometry" />
        </mxCell>
        <mxCell id="ik9S6n7GTcYjFrTrj1-Z-15" value="3" style="whiteSpace=wrap;fillColor=#e1d5e7;fontSize=12;fontFamily=Times New Roman;fontStyle=1;spacing=0;strokeColor=#9673a6;" vertex="1" parent="1">
          <mxGeometry x="450.5" y="685" width="80" height="10" as="geometry" />
        </mxCell>
        <mxCell id="ik9S6n7GTcYjFrTrj1-Z-17" value="5" style="whiteSpace=wrap;fontSize=12;fontFamily=Times New Roman;fontStyle=1;spacing=0;" vertex="1" parent="1">
          <mxGeometry x="530.3" y="652.04" width="31" height="10" as="geometry" />
        </mxCell>
        <mxCell id="ik9S6n7GTcYjFrTrj1-Z-18" value="5" style="whiteSpace=wrap;fontSize=12;fontFamily=Times New Roman;fontStyle=1;spacing=0;fillColor=#CCCCCC;" vertex="1" parent="1">
          <mxGeometry x="561.3" y="652.04" width="10" height="10" as="geometry" />
        </mxCell>
        <mxCell id="ik9S6n7GTcYjFrTrj1-Z-19" value="4" style="whiteSpace=wrap;fillColor=#fff2cc;fontSize=12;fontFamily=Times New Roman;fontStyle=1;spacing=0;strokeColor=#d6b656;" vertex="1" parent="1">
          <mxGeometry x="490.65" y="669.04" width="40" height="10" as="geometry" />
        </mxCell>
        <mxCell id="ik9S6n7GTcYjFrTrj1-Z-20" value="4" style="whiteSpace=wrap;fontSize=12;fontFamily=Times New Roman;fontStyle=1;labelPosition=center;verticalLabelPosition=middle;align=center;verticalAlign=middle;spacing=0;" vertex="1" parent="1">
          <mxGeometry x="490.3" y="652.04" width="30" height="10" as="geometry" />
        </mxCell>
        <mxCell id="ik9S6n7GTcYjFrTrj1-Z-21" value="4" style="whiteSpace=wrap;fontSize=12;fontFamily=Times New Roman;fontStyle=1;labelPosition=center;verticalLabelPosition=middle;align=center;verticalAlign=middle;spacing=0;fillColor=#CCCCCC;" vertex="1" parent="1">
          <mxGeometry x="520.3" y="652.04" width="10" height="10" as="geometry" />
        </mxCell>
        <mxCell id="ik9S6n7GTcYjFrTrj1-Z-25" value="" style="whiteSpace=wrap;fillColor=#f8cecc;fontSize=12;fontFamily=Times New Roman;fontStyle=1;spacing=0;strokeColor=#b85450;" vertex="1" parent="1">
          <mxGeometry x="445.35" y="669.04" width="5" height="10" as="geometry" />
        </mxCell>
        <mxCell id="ik9S6n7GTcYjFrTrj1-Z-26" value="3" style="whiteSpace=wrap;fillColor=#fff2cc;fontSize=12;fontFamily=Times New Roman;fontStyle=1;spacing=0;strokeColor=#d6b656;" vertex="1" parent="1">
          <mxGeometry x="420.35" y="669" width="10" height="10" as="geometry" />
        </mxCell>
        <mxCell id="ik9S6n7GTcYjFrTrj1-Z-27" value="3" style="whiteSpace=wrap;fillColor=#fff2cc;fontSize=12;fontFamily=Times New Roman;fontStyle=1;spacing=0;strokeColor=#d6b656;" vertex="1" parent="1">
          <mxGeometry x="435.35" y="669.04" width="10" height="10" as="geometry" />
        </mxCell>
        <mxCell id="ik9S6n7GTcYjFrTrj1-Z-28" value="3" style="whiteSpace=wrap;fillColor=#fff2cc;fontSize=12;fontFamily=Times New Roman;fontStyle=1;spacing=0;strokeColor=#d6b656;" vertex="1" parent="1">
          <mxGeometry x="450.15000000000003" y="669" width="10" height="10" as="geometry" />
        </mxCell>
        <mxCell id="ik9S6n7GTcYjFrTrj1-Z-30" value="1" style="whiteSpace=wrap;fillColor=#fff2cc;fontSize=12;fontFamily=Times New Roman;fontStyle=1;spacing=0;strokeColor=#d6b656;html=1;" vertex="1" parent="1">
          <mxGeometry x="325" y="586.58" width="10" height="10" as="geometry" />
        </mxCell>
        <mxCell id="ik9S6n7GTcYjFrTrj1-Z-31" value="1" style="whiteSpace=wrap;fillColor=#fff2cc;fontSize=12;fontFamily=Times New Roman;fontStyle=1;spacing=0;strokeColor=#d6b656;html=1;" vertex="1" parent="1">
          <mxGeometry x="340" y="586.58" width="10" height="10" as="geometry" />
        </mxCell>
        <mxCell id="ik9S6n7GTcYjFrTrj1-Z-32" value="2" style="whiteSpace=wrap;fontSize=12;fontFamily=Times New Roman;fontStyle=1;spacing=0;" vertex="1" parent="1">
          <mxGeometry x="390.5" y="569.5799999999999" width="31" height="10" as="geometry" />
        </mxCell>
        <mxCell id="ik9S6n7GTcYjFrTrj1-Z-33" value="2" style="whiteSpace=wrap;fontSize=12;fontFamily=Times New Roman;fontStyle=1;spacing=0;fillColor=#CCCCCC;" vertex="1" parent="1">
          <mxGeometry x="421.5" y="569.5799999999999" width="10" height="10" as="geometry" />
        </mxCell>
        <mxCell id="ik9S6n7GTcYjFrTrj1-Z-34" value="2" style="whiteSpace=wrap;fillColor=#fff2cc;fontSize=12;fontFamily=Times New Roman;fontStyle=1;spacing=0;strokeColor=#d6b656;" vertex="1" parent="1">
          <mxGeometry x="390.5" y="586.54" width="41" height="10" as="geometry" />
        </mxCell>
        <mxCell id="ik9S6n7GTcYjFrTrj1-Z-38" value="3" style="whiteSpace=wrap;fontSize=12;fontFamily=Times New Roman;fontStyle=1;labelPosition=center;verticalLabelPosition=middle;align=center;verticalAlign=middle;spacing=0;" vertex="1" parent="1">
          <mxGeometry x="431.5" y="569.5799999999999" width="30" height="10" as="geometry" />
        </mxCell>
        <mxCell id="ik9S6n7GTcYjFrTrj1-Z-39" value="3" style="whiteSpace=wrap;fontSize=12;fontFamily=Times New Roman;fontStyle=1;labelPosition=center;verticalLabelPosition=middle;align=center;verticalAlign=middle;spacing=0;fillColor=#CCCCCC;" vertex="1" parent="1">
          <mxGeometry x="461.5" y="569.5799999999999" width="10" height="10" as="geometry" />
        </mxCell>
        <mxCell id="ik9S6n7GTcYjFrTrj1-Z-40" value="3" style="whiteSpace=wrap;fillColor=#fff2cc;fontSize=12;fontFamily=Times New Roman;fontStyle=1;spacing=0;strokeColor=#d6b656;html=1;" vertex="1" parent="1">
          <mxGeometry x="431.7" y="586.58" width="10" height="10" as="geometry" />
        </mxCell>
        <mxCell id="ik9S6n7GTcYjFrTrj1-Z-41" value="3" style="whiteSpace=wrap;fillColor=#fff2cc;fontSize=12;fontFamily=Times New Roman;fontStyle=1;spacing=0;strokeColor=#d6b656;html=1;" vertex="1" parent="1">
          <mxGeometry x="446.5" y="586.58" width="10" height="10" as="geometry" />
        </mxCell>
        <mxCell id="ik9S6n7GTcYjFrTrj1-Z-42" value="3" style="whiteSpace=wrap;fillColor=#fff2cc;fontSize=12;fontFamily=Times New Roman;fontStyle=1;spacing=0;strokeColor=#d6b656;html=1;" vertex="1" parent="1">
          <mxGeometry x="461.5" y="586.58" width="10" height="10" as="geometry" />
        </mxCell>
        <mxCell id="ik9S6n7GTcYjFrTrj1-Z-43" value="5" style="whiteSpace=wrap;fillColor=#fff2cc;fontSize=12;fontFamily=Times New Roman;fontStyle=1;spacing=0;strokeColor=#d6b656;" vertex="1" parent="1">
          <mxGeometry x="530.65" y="669" width="40" height="10" as="geometry" />
        </mxCell>
        <mxCell id="ik9S6n7GTcYjFrTrj1-Z-44" value="" style="endArrow=none;html=1;rounded=0;dashed=1;" edge="1" parent="1">
          <mxGeometry width="50" height="50" relative="1" as="geometry">
            <mxPoint x="339.8" y="701" as="sourcePoint" />
            <mxPoint x="339.8" y="663" as="targetPoint" />
          </mxGeometry>
        </mxCell>
        <mxCell id="ik9S6n7GTcYjFrTrj1-Z-48" value="5" style="whiteSpace=wrap;fontSize=12;fontFamily=Times New Roman;fontStyle=1;spacing=0;" vertex="1" parent="1">
          <mxGeometry x="550.5" y="569.54" width="31" height="10" as="geometry" />
        </mxCell>
        <mxCell id="ik9S6n7GTcYjFrTrj1-Z-49" value="5" style="whiteSpace=wrap;fontSize=12;fontFamily=Times New Roman;fontStyle=1;spacing=0;fillColor=#CCCCCC;" vertex="1" parent="1">
          <mxGeometry x="581.5" y="569.54" width="10" height="10" as="geometry" />
        </mxCell>
        <mxCell id="ik9S6n7GTcYjFrTrj1-Z-50" value="4" style="whiteSpace=wrap;fillColor=#fff2cc;fontSize=12;fontFamily=Times New Roman;fontStyle=1;spacing=0;strokeColor=#d6b656;" vertex="1" parent="1">
          <mxGeometry x="510.84999999999997" y="586.54" width="40" height="10" as="geometry" />
        </mxCell>
        <mxCell id="ik9S6n7GTcYjFrTrj1-Z-51" value="4" style="whiteSpace=wrap;fontSize=12;fontFamily=Times New Roman;fontStyle=1;labelPosition=center;verticalLabelPosition=middle;align=center;verticalAlign=middle;spacing=0;" vertex="1" parent="1">
          <mxGeometry x="510.5" y="569.54" width="30" height="10" as="geometry" />
        </mxCell>
        <mxCell id="ik9S6n7GTcYjFrTrj1-Z-52" value="4" style="whiteSpace=wrap;fontSize=12;fontFamily=Times New Roman;fontStyle=1;labelPosition=center;verticalLabelPosition=middle;align=center;verticalAlign=middle;spacing=0;fillColor=#CCCCCC;" vertex="1" parent="1">
          <mxGeometry x="540.5" y="569.54" width="10" height="10" as="geometry" />
        </mxCell>
        <mxCell id="ik9S6n7GTcYjFrTrj1-Z-53" value="5" style="whiteSpace=wrap;fillColor=#fff2cc;fontSize=12;fontFamily=Times New Roman;fontStyle=1;spacing=0;strokeColor=#d6b656;" vertex="1" parent="1">
          <mxGeometry x="550.85" y="586.5" width="41" height="10" as="geometry" />
        </mxCell>
        <mxCell id="_t_QEoP6cxp7WhYtKz9P-242" value="" style="endArrow=none;html=1;rounded=0;dashed=1;" parent="1" edge="1">
          <mxGeometry width="50" height="50" relative="1" as="geometry">
            <mxPoint x="450.6" y="701" as="sourcePoint" />
            <mxPoint x="450.6" y="663" as="targetPoint" />
          </mxGeometry>
        </mxCell>
        <mxCell id="ik9S6n7GTcYjFrTrj1-Z-57" value="" style="endArrow=none;html=1;rounded=0;dashed=1;" edge="1" parent="1">
          <mxGeometry width="50" height="50" relative="1" as="geometry">
            <mxPoint x="350.5" y="618" as="sourcePoint" />
            <mxPoint x="350.5" y="561" as="targetPoint" />
          </mxGeometry>
        </mxCell>
        <mxCell id="ik9S6n7GTcYjFrTrj1-Z-58" value="" style="endArrow=none;html=1;rounded=0;dashed=1;" edge="1" parent="1">
          <mxGeometry width="50" height="50" relative="1" as="geometry">
            <mxPoint x="571.3" y="701.04" as="sourcePoint" />
            <mxPoint x="571.3" y="643.69" as="targetPoint" />
          </mxGeometry>
        </mxCell>
        <mxCell id="ik9S6n7GTcYjFrTrj1-Z-59" value="" style="endArrow=none;html=1;rounded=0;dashed=1;" edge="1" parent="1">
          <mxGeometry width="50" height="50" relative="1" as="geometry">
            <mxPoint x="510.5" y="618.12" as="sourcePoint" />
            <mxPoint x="510.5" y="561.0400000000001" as="targetPoint" />
          </mxGeometry>
        </mxCell>
        <mxCell id="_t_QEoP6cxp7WhYtKz9P-234" value="" style="endArrow=none;html=1;rounded=0;dashed=1;" parent="1" edge="1">
          <mxGeometry width="50" height="50" relative="1" as="geometry">
            <mxPoint x="591.5" y="618.3899999999999" as="sourcePoint" />
            <mxPoint x="591.5" y="561.04" as="targetPoint" />
          </mxGeometry>
        </mxCell>
      </root>
    </mxGraphModel>
  </diagram>
</mxfile>
